<mxfile host="app.diagrams.net" agent="Mozilla/5.0 (Windows NT 10.0; Win64; x64) AppleWebKit/537.36 (KHTML, like Gecko) Chrome/138.0.0.0 Safari/537.36" version="28.0.7">
  <diagram name="Page-1" id="e859ribowvNxwQsyc36x">
    <mxGraphModel dx="1029" dy="603" grid="1" gridSize="10" guides="1" tooltips="1" connect="1" arrows="1" fold="1" page="1" pageScale="1" pageWidth="850" pageHeight="1100" background="#ffffff" math="0" shadow="0">
      <root>
        <mxCell id="0" />
        <mxCell id="1" parent="0" />
        <mxCell id="1UDrHyN2oXGHnlcy0f62-2" value="Plan" style="ellipse;whiteSpace=wrap;html=1;fontSize=20;" vertex="1" parent="1">
          <mxGeometry x="260" y="410" width="200" height="110" as="geometry" />
        </mxCell>
        <mxCell id="1UDrHyN2oXGHnlcy0f62-5" value="" style="endArrow=classic;html=1;rounded=0;exitX=0.5;exitY=1;exitDx=0;exitDy=0;" edge="1" parent="1" source="1UDrHyN2oXGHnlcy0f62-2">
          <mxGeometry width="50" height="50" relative="1" as="geometry">
            <mxPoint x="470" y="680" as="sourcePoint" />
            <mxPoint x="360" y="590" as="targetPoint" />
          </mxGeometry>
        </mxCell>
        <mxCell id="1UDrHyN2oXGHnlcy0f62-8" value="&lt;font style=&quot;font-size: 17px;&quot;&gt;Develop&lt;/font&gt;" style="ellipse;whiteSpace=wrap;html=1;" vertex="1" parent="1">
          <mxGeometry x="265" y="590" width="190" height="110" as="geometry" />
        </mxCell>
        <mxCell id="1UDrHyN2oXGHnlcy0f62-18" value="" style="endArrow=classic;html=1;rounded=0;exitX=0.5;exitY=1;exitDx=0;exitDy=0;" edge="1" parent="1" source="1UDrHyN2oXGHnlcy0f62-8">
          <mxGeometry width="50" height="50" relative="1" as="geometry">
            <mxPoint x="390" y="710" as="sourcePoint" />
            <mxPoint x="360" y="780" as="targetPoint" />
          </mxGeometry>
        </mxCell>
        <mxCell id="1UDrHyN2oXGHnlcy0f62-19" value="&lt;font style=&quot;font-size: 17px;&quot;&gt;Build&lt;/font&gt;" style="ellipse;whiteSpace=wrap;html=1;" vertex="1" parent="1">
          <mxGeometry x="270" y="790" width="180" height="110" as="geometry" />
        </mxCell>
        <mxCell id="1UDrHyN2oXGHnlcy0f62-20" value="" style="endArrow=classic;html=1;rounded=0;exitX=0.5;exitY=1;exitDx=0;exitDy=0;" edge="1" parent="1" source="1UDrHyN2oXGHnlcy0f62-19">
          <mxGeometry width="50" height="50" relative="1" as="geometry">
            <mxPoint x="390" y="890" as="sourcePoint" />
            <mxPoint x="360" y="970" as="targetPoint" />
          </mxGeometry>
        </mxCell>
        <mxCell id="1UDrHyN2oXGHnlcy0f62-21" value="&lt;font style=&quot;font-size: 17px;&quot;&gt;Test&lt;/font&gt;" style="ellipse;whiteSpace=wrap;html=1;" vertex="1" parent="1">
          <mxGeometry x="270" y="970" width="180" height="100" as="geometry" />
        </mxCell>
        <mxCell id="1UDrHyN2oXGHnlcy0f62-23" value="" style="endArrow=classic;html=1;rounded=0;exitX=0.5;exitY=1;exitDx=0;exitDy=0;" edge="1" parent="1" source="1UDrHyN2oXGHnlcy0f62-21">
          <mxGeometry width="50" height="50" relative="1" as="geometry">
            <mxPoint x="390" y="1060" as="sourcePoint" />
            <mxPoint x="360" y="1150" as="targetPoint" />
          </mxGeometry>
        </mxCell>
        <mxCell id="1UDrHyN2oXGHnlcy0f62-24" value="&lt;font style=&quot;font-size: 17px;&quot;&gt;Release&lt;/font&gt;" style="ellipse;whiteSpace=wrap;html=1;" vertex="1" parent="1">
          <mxGeometry x="270" y="1150" width="180" height="100" as="geometry" />
        </mxCell>
        <mxCell id="1UDrHyN2oXGHnlcy0f62-25" value="" style="endArrow=classic;html=1;rounded=0;exitX=0.5;exitY=1;exitDx=0;exitDy=0;" edge="1" parent="1" source="1UDrHyN2oXGHnlcy0f62-24">
          <mxGeometry width="50" height="50" relative="1" as="geometry">
            <mxPoint x="390" y="1390" as="sourcePoint" />
            <mxPoint x="360" y="1320" as="targetPoint" />
          </mxGeometry>
        </mxCell>
        <mxCell id="1UDrHyN2oXGHnlcy0f62-26" value="&lt;font style=&quot;font-size: 17px;&quot;&gt;Deploy&lt;/font&gt;" style="ellipse;whiteSpace=wrap;html=1;" vertex="1" parent="1">
          <mxGeometry x="270" y="1320" width="180" height="100" as="geometry" />
        </mxCell>
        <mxCell id="1UDrHyN2oXGHnlcy0f62-27" value="" style="endArrow=classic;html=1;rounded=0;exitX=0.5;exitY=1;exitDx=0;exitDy=0;" edge="1" parent="1" source="1UDrHyN2oXGHnlcy0f62-26" target="1UDrHyN2oXGHnlcy0f62-28">
          <mxGeometry width="50" height="50" relative="1" as="geometry">
            <mxPoint x="370" y="1720" as="sourcePoint" />
            <mxPoint x="360" y="1500" as="targetPoint" />
          </mxGeometry>
        </mxCell>
        <mxCell id="1UDrHyN2oXGHnlcy0f62-28" value="&lt;font style=&quot;font-size: 17px;&quot;&gt;Operate&lt;/font&gt;" style="ellipse;whiteSpace=wrap;html=1;" vertex="1" parent="1">
          <mxGeometry x="270" y="1460" width="180" height="100" as="geometry" />
        </mxCell>
        <mxCell id="1UDrHyN2oXGHnlcy0f62-29" value="" style="endArrow=classic;html=1;rounded=0;exitX=0.5;exitY=1;exitDx=0;exitDy=0;" edge="1" parent="1" source="1UDrHyN2oXGHnlcy0f62-28" target="1UDrHyN2oXGHnlcy0f62-30">
          <mxGeometry width="50" height="50" relative="1" as="geometry">
            <mxPoint x="340" y="1720" as="sourcePoint" />
            <mxPoint x="360" y="1620" as="targetPoint" />
          </mxGeometry>
        </mxCell>
        <mxCell id="1UDrHyN2oXGHnlcy0f62-30" value="&lt;font style=&quot;font-size: 17px;&quot;&gt;Monitor&lt;/font&gt;" style="ellipse;whiteSpace=wrap;html=1;" vertex="1" parent="1">
          <mxGeometry x="270" y="1620" width="180" height="90" as="geometry" />
        </mxCell>
      </root>
    </mxGraphModel>
  </diagram>
</mxfile>
